<?xml version="1.0" encoding="iso-8859-1"?>
<!-- Generator: Adobe Illustrator 19.0.0, SVG Export Plug-In . SVG Version: 6.00 Build 0)  -->
<svg version="1.1" id="Capa_1" xmlns="http://www.w3.org/2000/svg" xmlns:xlink="http://www.w3.org/1999/xlink" x="0px" y="0px"
	 viewBox="0 0 511.998 511.998" style="enable-background:new 0 0 511.998 511.998;" xml:space="preserve">
<g>
	<g>
		<path d="M75.942,386.983H55.388c-0.387,0-0.756,0.17-1.009,0.465l-13.679,15.988c-0.683,0.798-1.978,0.524-2.279-0.482
			c-4.814-16.099-4.421-15.886-5.74-15.886c-20.882,0-20.491-0.357-20.876,0.952L0.055,427.995c-0.249,0.849,0.385,1.699,1.27,1.701
			c11.265,0.021,11.59,0.339,11.965-0.93l5.339-18.048c0.381-1.287,2.213-1.26,2.555,0.038c5.023,19.078,4.608,18.961,6.016,18.961
			c6.858,0,7.27,0.241,7.884-0.433l15.874-17.398c0.946-1.036,2.643-0.088,2.255,1.26l-4.27,14.873
			c-0.244,0.85,0.396,1.696,1.28,1.693l14.542-0.049c0.593-0.002,1.114-0.398,1.273-0.969l11.181-40.026
			C77.455,387.821,76.819,386.983,75.942,386.983z"/>
	</g>
</g>
<g>
	<g>
		<path d="M203.449,387.066c-53.764-0.092-51.309-0.538-51.694,0.963l-2.864,11.187c-0.226,0.883,0.441,1.741,1.352,1.741h14.398
			c0.904,0,1.569,0.847,1.356,1.725l-6.158,25.309c-0.214,0.879,0.453,1.726,1.358,1.725c14.99-0.022,14.964,0.315,15.323-1.064
			c7.462-28.711,6.822-27.817,8.309-27.817c17.109,0,17.096,0.361,17.43-1.08l2.548-10.979
			C205.009,387.902,204.346,387.067,203.449,387.066z"/>
	</g>
</g>
<g>
	<g>
		<path d="M322.181,387.058c-0.04-0.004-0.075-0.005-0.115-0.005l-27.413,0.014v-0.014c-13.532,0-13.481-0.295-13.813,0.874
			l-11.432,40.235c-0.218,0.768,0.359,1.531,1.157,1.531c14.405,0,14.241,0.292,14.573-0.873
			c3.313-11.636,3.063-11.833,4.286-11.821l11.772,0.12c4.014-0.34,4.758,2.083,4.885,2.752c0.072,0.377-0.344,5.728-0.376,6.111
			c-0.272,3.202,2.825,3.676,2.825,3.676h15.08c0.842,0,1.405-0.837,1.12-1.629c-1.436-3.988,1.596-5.477,0.919-10.537
			c-0.509-3.806-4.541-4.562-5.05-4.939c-0.513-0.387,0.143-1.032,0.143-1.032C334.593,407.365,338.359,388.596,322.181,387.058z
			 M310.713,405.211H294.15c-0.783,0-1.357-0.736-1.166-1.495l1.682-6.698h-0.014v-0.053h0.028l-0.013,0.053l17.736,0.063
			c0,0,3.325-0.251,3.114,3.324C315.302,403.868,311.743,405.211,310.713,405.211z"/>
	</g>
</g>
<g>
	<g>
		<path d="M449.247,417.981c-25.633,0-25.765,0.408-25.381-1.098c7.743-30.343,8.037-29.83,6.48-29.83
			c-14.813,0-15.058-0.372-15.327,0.658c-11.182,42.891-11.43,42.021-9.816,42.021c43.92,0,41.977,0.364,42.247-0.654l2.648-9.991
			C450.246,418.528,449.825,417.981,449.247,417.981z"/>
	</g>
</g>
<g>
	<g>
		<path d="M501.711,387.018c-19.684,0-19.04-0.248-19.488,0.412l-27.696,40.815c-0.424,0.625,0.025,1.47,0.78,1.469
			c12.359-0.021,12.395,0.241,12.847-0.44c0.084-0.128,4.641-7.002,4.755-7.105h20.527l0.063,0.146
			c1.637,6.76,1.502,7.401,2.532,7.401h15.027c0.605,0,1.052-0.562,0.917-1.151C501.957,384.815,502.782,387.018,501.711,387.018z
			 M479.965,412.14l-0.244-0.095l7.197-10.654c0.46-0.68,1.509-0.486,1.696,0.313l2.432,10.414
			C490.738,412.151,480.276,412.14,479.965,412.14z"/>
	</g>
</g>
<g>
	<g>
		<path d="M373.875,385.33c-25.69,0.513-38.498,17.346-36.111,29.78c2.386,12.403,19.24,19.062,38.085,15.414
			C409.431,424.082,415.116,385.33,373.875,385.33z M356.477,413.948c-1.416-8.199,5.872-18.293,17.332-17.558
			c5.158,0.291,10.222,2.672,11.004,6.383C388.676,421.286,358.713,426.808,356.477,413.948z"/>
	</g>
</g>
<g>
	<g>
		<path d="M268.194,401.423c-2.943-14.405-23.182-18.034-38.856-15.033c-12.735,2.448-28.824,14.042-26.006,28.72
			c2.386,12.403,19.24,19.062,38.085,15.414C259.111,427.13,270.708,413.506,268.194,401.423z M222.045,413.949
			c-1.416-8.199,5.872-18.293,17.332-17.558c5.159,0.29,10.223,2.671,11.005,6.383C254.243,421.287,224.28,426.808,222.045,413.949z
			"/>
	</g>
</g>
<g>
	<g>
		<path d="M115.762,385.33c-25.69,0.513-38.498,17.346-36.111,29.78c2.386,12.403,19.24,19.062,38.085,15.414
			C151.317,424.082,157.002,385.33,115.762,385.33z M98.364,413.948c-1.416-8.199,5.872-18.293,17.332-17.558
			c5.158,0.291,10.222,2.672,11.004,6.383C130.562,421.286,100.599,426.808,98.364,413.948z"/>
	</g>
</g>
<g>
	<g>
		<path d="M345.417,270.829l-43.654-143.119c-2.851-9.348-16.105-9.333-18.928,0.031l-26.77,88.804l-26.768-88.802
			c-2.822-9.359-16.076-9.385-18.928-0.03L166.744,270.83c-0.91,2.984-0.344,6.263,1.512,8.769
			c3.357,4.534,7.787,4.004,12.048,4.004c4.59,0,8.544-3.118,9.616-7.581c2.919-12.145,8.167-28.666,14.127-38.588
			c3.288-5.435,8.933-11.9,17.181-11.722c11.624,0.206,21.03,20.502,25.854,31.052c3.522,7.702,14.463,7.695,17.984,0.004
			c4.82-10.531,14.205-30.849,25.872-31.056c8.256-0.172,13.877,6.287,17.148,11.728c5.983,9.927,11.224,26.436,14.134,38.576
			c1.07,4.467,5.026,7.587,9.617,7.587h4.118C342.583,283.603,347.353,277.178,345.417,270.829z M198.474,219.737l21.325-69.958
			l20.636,68.458C226.93,206.081,209.957,208.704,198.474,219.737z M291.258,210.256c-0.2,0-0.403,0.002-0.604,0.005
			c-6.947,0.124-12.992,2.602-18.962,7.985l20.642-68.475l21.335,69.95C307.25,213.544,299.564,210.256,291.258,210.256z"/>
	</g>
</g>
<g>
	<g>
		<path d="M391.059,196.396c-8.374-59.988-55.341-107.465-115.864-115.842c-4.237-0.588-8.129,2.367-8.714,6.595
			c-0.585,4.227,2.368,8.129,6.595,8.714c53.041,7.34,95.265,49.561,102.677,102.67c0.54,3.863,3.849,6.659,7.643,6.659
			C388.109,205.192,391.705,201.033,391.059,196.396z"/>
	</g>
</g>
<g>
	<g>
		<path d="M384.472,225.87c-4.232-0.596-8.134,2.351-8.727,6.577c-8.317,59.204-59.758,103.851-119.658,103.851
			c-66.617,0-120.813-54.196-120.813-120.812c0-59.889,44.656-111.311,103.873-119.612c4.226-0.592,7.172-4.498,6.579-8.724
			c-0.591-4.226-4.496-7.176-8.723-6.58c-66.557,9.33-117.182,66.496-117.182,134.916c0,75.137,61.129,136.265,136.266,136.265
			c68.233,0,125.588-50.434,134.961-117.154C391.643,230.372,388.698,226.464,384.472,225.87z"/>
	</g>
</g>
<g>
</g>
<g>
</g>
<g>
</g>
<g>
</g>
<g>
</g>
<g>
</g>
<g>
</g>
<g>
</g>
<g>
</g>
<g>
</g>
<g>
</g>
<g>
</g>
<g>
</g>
<g>
</g>
<g>
</g>
</svg>
